valid_reformated

The embedding sizes for train and test: torch.Size([196679, 128]) torch.Size([26966, 128])
Calculating eval distance map, between 26966 test ids and 5640 train EC cluster centers
############ EC calling results using maximum separation ############
---------------------------------------------------------------------------
>>> total samples: 26966 | total ec: 3489 
>>> precision: 0.923 | recall: 0.876| F1: 0.883 | AUC: 0.938 
---------------------------------------------------------------------------

test1_reformated

The embedding sizes for train and test: torch.Size([196679, 128]) torch.Size([24617, 128])
Calculating eval distance map, between 24617 test ids and 5640 train EC cluster centers
############ EC calling results using maximum separation ############
---------------------------------------------------------------------------
>>> total samples: 24617 | total ec: 4252 
>>> precision: 0.898 | recall: 0.847| F1: 0.854 | AUC: 0.924 
---------------------------------------------------------------------------

test2_reformated

The embedding sizes for train and test: torch.Size([196679, 128]) torch.Size([2104, 128])
Calculating eval distance map, between 2104 test ids and 5640 train EC cluster centers
############ EC calling results using maximum separation ############
---------------------------------------------------------------------------
>>> total samples: 2104 | total ec: 2351 
>>> precision: 0.65 | recall: 0.641| F1: 0.62 | AUC: 0.82 
---------------------------------------------------------------------------

